<svg width="205" height="40" viewBox="0 0 205 40" fill="none" xmlns="http://www.w3.org/2000/svg">
<path d="M59.5234 16.2383C61.1172 16.2383 62.4102 16.832 63.4023 18.0195C64.4023 19.207 64.9023 20.7617 64.9023 22.6836C64.9023 24.6055 64.4062 26.1641 63.4141 27.3594C62.4297 28.5469 61.1406 29.1406 59.5469 29.1406C58.5547 29.1406 57.6758 28.8945 56.9102 28.4023C56.1523 27.9023 55.5938 27.2344 55.2344 26.3984H55.1992V33.1367H53.6523V16.3789H55.1172V18.9922H55.1523C55.4883 18.1797 56.0547 17.5195 56.8516 17.0117C57.6484 16.4961 58.5391 16.2383 59.5234 16.2383ZM59.2539 27.7461C60.4727 27.7461 61.4531 27.2852 62.1953 26.3633C62.9453 25.4336 63.3203 24.2109 63.3203 22.6953C63.3203 21.1797 62.9453 19.957 62.1953 19.0273C61.4531 18.0898 60.4727 17.6211 59.2539 17.6211C58.0508 17.6211 57.0703 18.0938 56.3125 19.0391C55.5625 19.9766 55.1875 21.1914 55.1875 22.6836C55.1875 24.1836 55.5625 25.4023 56.3125 26.3398C57.0703 27.2773 58.0508 27.7461 59.2539 27.7461ZM72.1562 29.1406C70.4219 29.1406 69.0312 28.5586 67.9844 27.3945C66.9453 26.2227 66.4258 24.6523 66.4258 22.6836C66.4258 20.7227 66.9453 19.1602 67.9844 17.9961C69.0312 16.8242 70.4219 16.2383 72.1562 16.2383C73.8984 16.2383 75.2891 16.8242 76.3281 17.9961C77.375 19.1602 77.8984 20.7227 77.8984 22.6836C77.8984 24.6445 77.375 26.2109 76.3281 27.3828C75.2891 28.5547 73.8984 29.1406 72.1562 29.1406ZM72.1562 27.7461C73.4453 27.7461 74.4609 27.2969 75.2031 26.3984C75.9453 25.4922 76.3164 24.2539 76.3164 22.6836C76.3164 21.1133 75.9453 19.8789 75.2031 18.9805C74.4609 18.0742 73.4453 17.6211 72.1562 17.6211C70.875 17.6211 69.8633 18.0742 69.1211 18.9805C68.3789 19.8789 68.0078 21.1133 68.0078 22.6836C68.0078 24.2539 68.3789 25.4922 69.1211 26.3984C69.8633 27.2969 70.875 27.7461 72.1562 27.7461ZM80.0664 29V16.3789H81.5195V18.7344H81.5664C81.8398 17.9766 82.3008 17.3711 82.9492 16.918C83.5977 16.4648 84.3633 16.2383 85.2461 16.2383C86.1445 16.2383 86.9141 16.4766 87.5547 16.9531C88.2031 17.4297 88.6484 18.0742 88.8906 18.8867H88.9258C89.2305 18.0898 89.7383 17.4492 90.4492 16.9648C91.168 16.4805 91.9922 16.2383 92.9219 16.2383C94.1562 16.2383 95.1445 16.6211 95.8867 17.3867C96.6289 18.1445 97 19.1602 97 20.4336V29H95.4414V20.7852C95.4414 19.8008 95.1797 19.0273 94.6562 18.4648C94.1406 17.9023 93.4219 17.6211 92.5 17.6211C91.5625 17.6211 90.793 17.9492 90.1914 18.6055C89.5977 19.2539 89.3008 20.0898 89.3008 21.1133V29H87.7539V20.6328C87.7539 19.7344 87.4844 19.0078 86.9453 18.4531C86.4062 17.8984 85.7031 17.6211 84.8359 17.6211C83.8984 17.6211 83.125 17.9648 82.5156 18.6523C81.9141 19.3398 81.6133 20.2227 81.6133 21.3008V29H80.0664ZM104.828 29.1406C103.094 29.1406 101.703 28.5586 100.656 27.3945C99.6172 26.2227 99.0977 24.6523 99.0977 22.6836C99.0977 20.7227 99.6172 19.1602 100.656 17.9961C101.703 16.8242 103.094 16.2383 104.828 16.2383C106.57 16.2383 107.961 16.8242 109 17.9961C110.047 19.1602 110.57 20.7227 110.57 22.6836C110.57 24.6445 110.047 26.2109 109 27.3828C107.961 28.5547 106.57 29.1406 104.828 29.1406ZM104.828 27.7461C106.117 27.7461 107.133 27.2969 107.875 26.3984C108.617 25.4922 108.988 24.2539 108.988 22.6836C108.988 21.1133 108.617 19.8789 107.875 18.9805C107.133 18.0742 106.117 17.6211 104.828 17.6211C103.547 17.6211 102.535 18.0742 101.793 18.9805C101.051 19.8789 100.68 21.1133 100.68 22.6836C100.68 24.2539 101.051 25.4922 101.793 26.3984C102.535 27.2969 103.547 27.7461 104.828 27.7461ZM117.508 29.1406C115.922 29.1406 114.625 28.5469 113.617 27.3594C112.609 26.1641 112.105 24.6055 112.105 22.6836C112.105 20.7695 112.605 19.2188 113.605 18.0312C114.605 16.8359 115.895 16.2383 117.473 16.2383C118.473 16.2383 119.359 16.4883 120.133 16.9883C120.906 17.4805 121.465 18.1406 121.809 18.9688H121.844V11.3516H123.402V29H121.926V26.3164H121.891C121.523 27.1836 120.953 27.8711 120.18 28.3789C119.406 28.8867 118.516 29.1406 117.508 29.1406ZM120.707 19.0391C119.949 18.0938 118.965 17.6211 117.754 17.6211C116.543 17.6211 115.562 18.0859 114.812 19.0156C114.062 19.9453 113.688 21.168 113.688 22.6836C113.688 24.1992 114.062 25.4219 114.812 26.3516C115.562 27.2812 116.543 27.7461 117.754 27.7461C118.965 27.7461 119.949 27.2773 120.707 26.3398C121.473 25.4023 121.855 24.1836 121.855 22.6836C121.855 21.1914 121.473 19.9766 120.707 19.0391ZM131.406 29.1406C129.672 29.1406 128.281 28.5586 127.234 27.3945C126.195 26.2227 125.676 24.6523 125.676 22.6836C125.676 20.7227 126.195 19.1602 127.234 17.9961C128.281 16.8242 129.672 16.2383 131.406 16.2383C133.148 16.2383 134.539 16.8242 135.578 17.9961C136.625 19.1602 137.148 20.7227 137.148 22.6836C137.148 24.6445 136.625 26.2109 135.578 27.3828C134.539 28.5547 133.148 29.1406 131.406 29.1406ZM131.406 27.7461C132.695 27.7461 133.711 27.2969 134.453 26.3984C135.195 25.4922 135.566 24.2539 135.566 22.6836C135.566 21.1133 135.195 19.8789 134.453 18.9805C133.711 18.0742 132.695 17.6211 131.406 17.6211C130.125 17.6211 129.113 18.0742 128.371 18.9805C127.629 19.8789 127.258 21.1133 127.258 22.6836C127.258 24.2539 127.629 25.4922 128.371 26.3984C129.113 27.2969 130.125 27.7461 131.406 27.7461ZM139.316 29V16.3789H140.77V18.6172H140.816C141.035 17.8672 141.426 17.2852 141.988 16.8711C142.551 16.4492 143.227 16.2383 144.016 16.2383C144.352 16.2383 144.664 16.2812 144.953 16.3672V17.9141C144.688 17.7891 144.305 17.7266 143.805 17.7266C142.914 17.7266 142.199 18.0469 141.66 18.6875C141.129 19.3203 140.863 20.1484 140.863 21.1719V29H139.316ZM151.117 29.1406C149.383 29.1406 147.992 28.5586 146.945 27.3945C145.906 26.2227 145.387 24.6523 145.387 22.6836C145.387 20.7227 145.906 19.1602 146.945 17.9961C147.992 16.8242 149.383 16.2383 151.117 16.2383C152.859 16.2383 154.25 16.8242 155.289 17.9961C156.336 19.1602 156.859 20.7227 156.859 22.6836C156.859 24.6445 156.336 26.2109 155.289 27.3828C154.25 28.5547 152.859 29.1406 151.117 29.1406ZM151.117 27.7461C152.406 27.7461 153.422 27.2969 154.164 26.3984C154.906 25.4922 155.277 24.2539 155.277 22.6836C155.277 21.1133 154.906 19.8789 154.164 18.9805C153.422 18.0742 152.406 17.6211 151.117 17.6211C149.836 17.6211 148.824 18.0742 148.082 18.9805C147.34 19.8789 146.969 21.1133 146.969 22.6836C146.969 24.2539 147.34 25.4922 148.082 26.3984C148.824 27.2969 149.836 27.7461 151.117 27.7461ZM167.91 31.6016H156.953V30.4297H167.91V31.6016ZM174.648 29.1406C173.641 29.1406 172.75 28.8945 171.977 28.4023C171.211 27.9023 170.641 27.2109 170.266 26.3281H170.23V29H168.754V11.3516H170.301V18.9688H170.336C170.703 18.1172 171.27 17.4492 172.035 16.9648C172.801 16.4805 173.68 16.2383 174.672 16.2383C176.258 16.2383 177.543 16.832 178.527 18.0195C179.512 19.207 180.004 20.7617 180.004 22.6836C180.004 24.6133 179.508 26.1719 178.516 27.3594C177.531 28.5469 176.242 29.1406 174.648 29.1406ZM177.309 19.0156C176.574 18.0859 175.602 17.6211 174.391 17.6211C173.18 17.6211 172.191 18.0938 171.426 19.0391C170.668 19.9844 170.289 21.2031 170.289 22.6953C170.289 24.1875 170.668 25.4023 171.426 26.3398C172.191 27.2773 173.176 27.7461 174.379 27.7461C175.59 27.7461 176.566 27.2852 177.309 26.3633C178.051 25.4336 178.422 24.207 178.422 22.6836C178.422 21.168 178.051 19.9453 177.309 19.0156ZM187.258 29.1406C185.523 29.1406 184.133 28.5586 183.086 27.3945C182.047 26.2227 181.527 24.6523 181.527 22.6836C181.527 20.7227 182.047 19.1602 183.086 17.9961C184.133 16.8242 185.523 16.2383 187.258 16.2383C189 16.2383 190.391 16.8242 191.43 17.9961C192.477 19.1602 193 20.7227 193 22.6836C193 24.6445 192.477 26.2109 191.43 27.3828C190.391 28.5547 189 29.1406 187.258 29.1406ZM187.258 27.7461C188.547 27.7461 189.562 27.2969 190.305 26.3984C191.047 25.4922 191.418 24.2539 191.418 22.6836C191.418 21.1133 191.047 19.8789 190.305 18.9805C189.562 18.0742 188.547 17.6211 187.258 17.6211C185.977 17.6211 184.965 18.0742 184.223 18.9805C183.48 19.8789 183.109 21.1133 183.109 22.6836C183.109 24.2539 183.48 25.4922 184.223 26.3984C184.965 27.2969 185.977 27.7461 187.258 27.7461ZM199.188 23.7969H199.141L195.648 29H193.891L198.344 22.6484L193.938 16.3789H195.695L199.199 21.4648H199.234L202.703 16.3789H204.461L200.043 22.5898L204.426 29H202.668L199.188 23.7969Z" fill="#DC3E22"/>
<g clipPath="url(#clip0_10271_150)">
<path d="M38.9151 23.2834C38.9151 33.7058 30.466 40 20.0437 40C9.62098 40 1.17188 31.5509 1.17188 21.1282C1.17188 10.7059 9.88496 4.2981 20.3073 4.2981C30.73 4.2981 38.9151 12.8607 38.9151 23.2834Z" fill="#DC3E22"/>
<path d="M28.238 12.6066C27.3211 11.673 25.8377 10.8048 24.733 10.551C25.3401 10.0127 25.4623 9.99494 26.2227 9.61816C28.1713 8.65365 31.0576 8.56485 31.0576 8.56485C31.0576 8.56485 27.6509 6.8042 25.1601 6.91468C24.5259 6.94257 23.8571 7.16658 23.2118 7.48403C23.5757 6.97054 23.9205 6.45998 24.1409 6.07643C24.8152 4.90368 25.524 3.42627 25.524 3.42627C25.524 3.42627 22.9122 3.56573 21.7008 5.01565C21.2407 5.56645 20.8934 6.26625 20.6392 6.92275C20.1878 6.40419 19.6896 5.94243 19.1913 5.58195C16.6999 3.77896 12.7192 4.16903 12.7192 4.16903C12.7192 4.16903 15.7263 5.87486 17.0793 7.57656C17.6076 8.2411 18.1437 8.54842 18.4642 9.29352C17.3564 9.05367 14.8569 9.13565 13.63 9.59057C10.4771 10.7599 9.11852 15.4649 9.11852 15.4649C9.11852 15.4649 12.1952 13.3443 16.3813 11.8565C17.3017 11.5295 18.2748 11.4429 19.1229 11.4578C18.7379 12.0575 18.3173 12.8363 17.999 13.7546C17.2247 15.9904 18.2479 21.3113 18.2479 21.3113C18.2479 21.3113 20.4896 18.1647 21.403 15.6157C21.8718 14.3073 21.9879 12.9936 21.9904 12.0242C22.8217 12.3931 23.8009 12.9319 24.5326 13.398C28.2794 15.7852 30.072 20.1435 30.072 20.1435C30.072 20.1435 30.5941 15.006 28.238 12.6066V12.6066Z" fill="#899441"/>
<path d="M20.5008 10.3094C20.4889 10.3094 20.477 10.3091 20.4651 10.3088C19.7242 10.2896 19.1391 9.67376 19.1572 8.9334C19.1587 8.86931 19.2234 4.36125 16.7191 2.40111C16.135 1.94395 16.0318 1.09984 16.489 0.515424C16.9465 -0.0686834 17.7906 -0.171833 18.3747 0.285626C21.9559 3.08806 21.8491 8.76128 21.843 9.00145C21.8238 9.73083 21.2262 10.3094 20.5008 10.3094V10.3094Z" fill="#A8B64F"/>
</g>
<defs>
<clipPath id="clip0_10271_150">
<rect width="40" height="40" fill="white"/>
</clipPath>
</defs>
</svg>
